name C:\Users\u0101727\Documents\MyRepositories\upper-imu-dc\Results\main_mocap_tracking\Case_6\kinematics.mot
datacolumns 15
datarows 37
range 5.00461538 5.33692308
endheader 
time	ground_thorax_rot_x	ground_thorax_rot_y	ground_thorax_rot_z	clav_prot	clav_elev	scapula_abduction	scapula_elevation	scapula_upward_rot	scapula_winging	plane_elv	shoulder_elv	axial_rot	elbow_flexion	pro_sup	
          5.00461538	          1.45379889	         -8.21579552	        -10.01732666	        -23.28704305	          2.53757018	          0.93239042	         -4.05320443	         37.05285817	         -2.32430832	         68.89342213	         46.85430685	        -25.17134546	          0.02994965	         34.31834935	
          5.01384615	          1.47272391	         -8.10799878	         -9.97729567	        -23.24686799	          2.32692597	          0.61831276	         -4.11557962	         36.47996340	         -2.15453525	         68.74411208	         46.51819526	        -25.05111648	          0.03097983	         34.31823089	
          5.02307692	          1.49115559	         -8.00271550	         -9.93839083	        -23.21258125	          2.11383591	          0.30157731	         -4.17955526	         35.91366899	         -1.98326650	         68.59182249	         46.19000448	        -24.96473242	          0.03158015	         34.31816047	
          5.03230769	          1.50899169	         -7.90082753	         -9.90079202	        -23.18073668	          1.90119882	         -0.01014695	         -4.24342629	         35.35718333	         -1.81201212	         68.43308262	         45.86622321	        -24.89869523	          0.03166689	         34.31813257	
          5.04153846	          1.52606214	         -7.80327316	         -9.86468239	        -23.14703020	          1.69088702	         -0.30763336	         -4.30616348	         34.81346916	         -1.64204407	         68.26209958	         45.54292130	        -24.83566896	          0.03137296	         34.31811763	
          5.05076923	          1.54214336	         -7.71096655	         -9.83024002	        -23.10695366	          1.48342547	         -0.58168357	         -4.36756956	         34.28455245	         -1.47413975	         68.07158312	         45.21672568	        -24.76012519	          0.03110312	         34.31807151	
          5.06000000	          1.55700067	         -7.62466899	         -9.79762146	        -23.05671572	          1.27822414	         -0.82506439	         -4.42809820	         33.77117020	         -1.30853481	         67.85477227	         44.88557989	        -24.66146397	          0.03135368	         34.31795283	
          5.06923077	          1.57043632	         -7.54487205	         -9.76694317	        -22.99399329	          1.07418416	         -1.03375665	         -4.48849461	         33.27305843	         -1.14511734	         67.60749615	         44.54875234	        -24.53370682	          0.03244842	         34.31773214	
          5.07846154	          1.58232166	         -7.47172810	         -9.73826904	        -22.91828217	          0.87017430	         -1.20753043	         -4.54949403	         32.78915323	         -0.98357622	         67.32936764	         44.20673778	        -24.37433857	          0.03436552	         34.31742192	
          5.08769231	          1.59261266	         -7.40503758	         -9.71160331	        -22.83080471	          0.66545201	         -1.34955776	         -4.61157556	         32.31802260	         -0.82359062	         67.02392033	         43.86074165	        -24.18225115	          0.03666439	         34.31707459	
          5.09692308	          1.60134396	         -7.34429377	         -9.68689144	        -22.73404777	          0.45981120	         -1.46540765	         -4.67487417	         31.85816526	         -0.66492331	         66.69754367	         43.51216745	        -23.95707317	          0.03861391	         34.31676289	
          5.10615385	          1.60860615	         -7.28876647	         -9.66402895	        -22.63119567	          0.25335632	         -1.56195049	         -4.73931664	         31.40805335	         -0.50735814	         66.35763285	         43.16237156	        -23.70161423	          0.03943825	         34.31655847	
          5.11538462	          1.61451433	         -7.23760315	         -9.64287549	        -22.52558680	          0.04607433	         -1.64638974	         -4.80487525	         30.96599000	         -0.35054253	         66.01054716	         42.81266233	        -23.42556289	          0.03859306	         34.31651150	
          5.12461538	          1.61918016	         -7.18991934	         -9.62326992	        -22.42029719	         -0.16254357	         -1.72552372	         -4.87179586	         30.52997865	         -0.19384883	         65.66010019	         42.46435293	        -23.14717879	          0.03596361	         34.31663489	
          5.13384615	          1.62269917	         -7.14485467	         -9.60504144	        -22.31792026	         -0.37357414	         -1.80528965	         -4.94065144	         30.09779361	         -0.03637208	         65.30714536	         42.11868043	        -22.89103668	          0.03190659	         34.31689985	
          5.14307692	          1.62515861	         -7.10158641	         -9.58801437	        -22.22055897	         -0.58833171	         -1.89061501	         -5.01215977	         29.66729189	          0.12289538	         64.95039552	         41.77654774	        -22.68225105	          0.02711102	         34.31724790	
          5.15230769	          1.62666095	         -7.05931205	         -9.57200780	        -22.12996342	         -0.80774322	         -1.98554785	         -5.08680993	         29.23680288	          0.28477611	         64.58804839	         41.43822394	        -22.53949300	          0.02240839	         34.31759439	
          5.16153846	          1.62734889	         -7.01723061	         -9.55683479	        -22.04771005	         -1.03171079	         -2.09349029	         -5.16447550	         28.80548010	          0.44961346	         64.21957045	         41.10312528	        -22.46969885	          0.01846684	         34.31789417	
          5.17076923	          1.62742430	         -6.97453798	         -9.54230229	        -21.97522379	         -1.25850916	         -2.21727511	         -5.24400999	         28.37347362	          0.61700713	         63.84705699	         40.76973764	        -22.46427762	          0.01558019	         34.31813386	
          5.18000000	          1.62714047	         -6.93047025	         -9.52821989	        -21.91358908	         -1.48469844	         -2.35902219	         -5.32312916	         27.94170025	          0.78578095	         63.47530658	         40.43590566	        -22.49982775	          0.01362166	         34.31830382	
          5.18923077	          1.62675577	         -6.88440631	         -9.51442387	        -21.86338887	         -1.70600130	         -2.51994900	         -5.39895891	         27.51139082	          0.95432063	         63.11015459	         40.09934893	        -22.54638702	          0.01230754	         34.31842742	
          5.19846154	          1.62647706	         -6.83598825	         -9.50080083	        -21.82426566	         -1.91815481	         -2.69957624	         -5.46858509	         27.08382239	          1.12087057	         62.75620915	         39.75787322	        -22.57328520	          0.01143987	         34.31851483	
          5.20769231	          1.62640958	         -6.78522172	         -9.48730665	        -21.79454623	         -2.11762449	         -2.89494644	         -5.52954765	         26.66025220	          1.28376652	         62.41481794	         39.40939847	        -22.55398304	          0.01104201	         34.31855333	
          5.21692308	          1.62652823	         -6.73251741	         -9.47397646	        -21.77117228	         -2.30209127	         -3.10044432	         -5.58018670	         26.24184860	          1.44163111	         62.08306653	         39.05205510	        -22.46935768	          0.01136436	         34.31851430	
          5.22615385	          1.62667877	         -6.67865312	         -9.46092308	        -21.75001547	         -2.47065028	         -3.30843741	         -5.61977571	         25.82951147	          1.59353193	         61.75424371	         38.68443534	        -22.30812337	          0.01276179	         34.31836448	
          5.23538462	          1.62660409	         -6.62467347	         -9.44832584	        -21.72647420	         -2.62376808	         -3.51048526	         -5.64848281	         25.42365625	          1.73908264	         61.41939392	         38.30588987	        -22.06505567	          0.01552433	         34.31807938	
          5.24461538	          1.62598398	         -6.57176358	         -9.43641372	        -21.69614607	         -2.76307150	         -3.69864905	         -5.66722725	         25.02408761	          1.87846083	         61.06920550	         37.91672267	        -21.73871095	          0.01972289	         34.31765592	
          5.25384615	          1.62447781	         -6.52112839	         -9.42544682	        -21.65539281	         -2.89105030	         -3.86651067	         -5.67749876	         24.63004225	          2.01233784	         60.69556605	         37.51819132	        -21.32999009	          0.02511666	         34.31712206	
          5.26307692	          1.62176403	         -6.47389201	         -9.41569816	        -21.60170236	         -3.01073049	         -4.00973856	         -5.68117509	         24.24038499	          2.14174116	         60.29247666	         37.11231768	        -20.84178076	          0.03114829	         34.31653837	
          5.27230769	          1.61757485	         -6.43101744	         -9.40743637	        -21.53384705	         -3.12535578	         -4.12626331	         -5.68034594	         23.85385888	          2.26789148	         59.85636267	         36.70160715	        -20.27925693	          0.03701942	         34.31598990	
          5.28153846	          1.61172423	         -6.39324703	         -9.40090998	        -21.45185931	         -3.23810908	         -4.21619062	         -5.67713840	         23.46924770	          2.39206577	         59.38587604	         36.28881784	        -19.65043571	          0.04186344	         34.31556264	
          5.29076923	          1.60412767	         -6.36105746	         -9.39633492	        -21.35702049	         -3.35199276	         -4.28184439	         -5.67361609	         23.08532826	          2.51557479	         58.88153850	         35.87695435	        -18.96758417	          0.04495233	         34.31531925	
          5.30000000	          1.59481038	         -6.33463561	         -9.39388714	        -21.25189963	         -3.46989279	         -4.32792760	         -5.67179267	         22.70071027	          2.63984669	         58.34533057	         35.46939636	        -18.24907283	          0.04588679	         34.31529518	
          5.30923077	          1.58390021	         -6.31389849	         -9.39369735	        -21.14001515	         -3.59450793	         -4.36089768	         -5.67357446	         22.31391542	          2.76638374	         57.77984324	         35.06969724	        -17.51820605	          0.04479850	         34.31547656	
          5.31846154	          1.57161797	         -6.29852865	         -9.39584607	        -21.02544198	         -3.72809933	         -4.38809865	         -5.68063079	         21.92374631	          2.89657781	         57.18792234	         34.68111703	        -16.80023126	          0.04226014	         34.31579907	
          5.32769231	          1.55826819	         -6.28801506	         -9.40035975	        -20.91250143	         -3.87211675	         -4.41701820	         -5.69419752	         21.52973519	          3.03145832	         56.57291493	         34.30611910	        -16.11930323	          0.03901332	         34.31619302	
          5.33692308	          1.54422427	         -6.28171609	         -9.40720811	        -20.80515842	         -4.02665664	         -4.45408438	         -5.71473897	         21.13258417	          3.17133650	         55.93867193	         33.94577851	        -15.49372037	          0.03580879	         34.31660083	
